<svg width="60" height="70" viewBox="0 0 60 70" xmlns="http://www.w3.org/2000/svg">
  <defs>
    <linearGradient id="shieldGradient" x1="0%" y1="0%" x2="100%" y2="100%">
      <stop offset="0%" style="stop-color:#8B0000;stop-opacity:1" />
      <stop offset="100%" style="stop-color:#A52A2A;stop-opacity:1" />
    </linearGradient>
  </defs>
  
  <!-- Shield Background -->
  <path d="M30 5 L50 15 L50 45 L30 65 L10 45 L10 15 Z" fill="url(#shieldGradient)" stroke="#8B0000" stroke-width="2"/>
  
  <!-- Shield Border -->
  <path d="M30 5 L50 15 L50 45 L30 65 L10 45 L10 15 Z" fill="none" stroke="#8B0000" stroke-width="3"/>
  
  <!-- Book Icon -->
  <rect x="20" y="25" width="12" height="8" fill="white" rx="1"/>
  <line x1="22" y1="27" x2="30" y2="27" stroke="#8B0000" stroke-width="1"/>
  <line x1="22" y1="29" x2="30" y2="29" stroke="#8B0000" stroke-width="1"/>
  <line x1="22" y1="31" x2="30" y2="31" stroke="#8B0000" stroke-width="1"/>
  
  <!-- Torch Icon -->
  <rect x="28" y="25" width="4" height="12" fill="white" rx="2"/>
  <circle cx="30" cy="22" r="3" fill="white"/>
  <path d="M27 20 Q30 18 33 20" stroke="white" stroke-width="2" fill="none"/>
  
  <!-- Year -->
  <text x="30" y="55" text-anchor="middle" fill="white" font-family="Arial, sans-serif" font-size="10" font-weight="bold">1950</text>
</svg>
